<svg width="24" height="24" viewBox="0 0 24 24" fill="none" xmlns="http://www.w3.org/2000/svg">
<path d="M5 20V15.957C5 15.5123 5.15833 15.1327 5.475 14.818C5.791 14.5033 6.171 14.346 6.615 14.346H17.385C17.829 14.346 18.209 14.5043 18.525 14.821C18.8417 15.137 19 15.517 19 15.961V20H5ZM9.288 12.577C8.10133 12.577 7.09 12.159 6.254 11.323C5.418 10.487 5 9.47533 5 8.288C5 7.10133 5.418 6.09 6.254 5.254C7.09 4.418 8.10133 4 9.288 4H14.712C15.8987 4 16.91 4.418 17.746 5.254C18.582 6.09 19 7.10133 19 8.288C19 9.47467 18.582 10.4863 17.746 11.323C16.9093 12.159 15.898 12.577 14.712 12.577H9.288ZM6 19H18V15.962C18 15.782 17.9423 15.6343 17.827 15.519C17.7117 15.4037 17.5643 15.346 17.385 15.346H6.615C6.43567 15.346 6.28833 15.4037 6.173 15.519C6.05767 15.6343 6 15.782 6 15.962V19ZM9.288 11.577H14.712C15.6347 11.577 16.4133 11.2597 17.048 10.625C17.6827 9.99033 18 9.21133 18 8.288C18 7.36533 17.6827 6.58667 17.048 5.952C16.4133 5.31733 15.6347 5 14.712 5H9.288C8.36533 5 7.58667 5.31733 6.952 5.952C6.31733 6.58667 6 7.36533 6 8.288C6 9.21133 6.31733 9.99033 6.952 10.625C7.58667 11.2597 8.36533 11.577 9.288 11.577ZM9.288 9.019C9.49467 9.019 9.668 8.949 9.808 8.809C9.948 8.669 10.0183 8.49567 10.019 8.289C10.019 8.08233 9.949 7.909 9.809 7.769C9.669 7.629 9.49567 7.55867 9.289 7.558C9.08233 7.558 8.909 7.628 8.769 7.768C8.629 7.908 8.55867 8.08133 8.558 8.288C8.558 8.49467 8.628 8.668 8.768 8.808C8.908 8.948 9.08133 9.01833 9.288 9.019ZM14.711 9.019C14.9177 9.019 15.091 8.949 15.231 8.809C15.371 8.669 15.4413 8.49567 15.442 8.289C15.442 8.08233 15.372 7.909 15.232 7.769C15.092 7.629 14.9187 7.55867 14.712 7.558C14.5053 7.558 14.332 7.628 14.192 7.768C14.052 7.908 13.9817 8.08133 13.981 8.288C13.981 8.49467 14.051 8.668 14.191 8.808C14.331 8.948 14.5043 9.01833 14.711 9.019Z" fill="#3D4561"/>
</svg>