<svg width="18" height="18" viewBox="0 0 18 18" fill="none" xmlns="http://www.w3.org/2000/svg">
<path d="M10.95 16.5H15.3C15.5485 16.5 15.75 16.2985 15.75 16.05V13.2C15.75 12.9515 15.5485 12.75 15.3 12.75H10.95C10.7015 12.75 10.5 12.9515 10.5 13.2V16.05C10.5 16.2985 10.7015 16.5 10.95 16.5Z" stroke="#3D4561"/>
<path d="M6.825 5.25L11.175 5.25C11.4235 5.25 11.625 5.04853 11.625 4.8V1.95C11.625 1.70147 11.4235 1.5 11.175 1.5L6.825 1.5C6.57647 1.5 6.375 1.70147 6.375 1.95V4.8C6.375 5.04853 6.57647 5.25 6.825 5.25Z" stroke="#3D4561"/>
<path d="M2.7 16.5H7.05C7.29853 16.5 7.5 16.2985 7.5 16.05V13.2C7.5 12.9515 7.29853 12.75 7.05 12.75H2.7C2.45147 12.75 2.25 12.9515 2.25 13.2V16.05C2.25 16.2985 2.45147 16.5 2.7 16.5Z" stroke="#3D4561"/>
<path d="M13.125 12.75V10.125C13.125 9.72718 12.967 9.34565 12.6857 9.06434C12.4044 8.78304 12.0228 8.625 11.625 8.625H6.375C5.97718 8.625 5.59564 8.78304 5.31434 9.06434C5.03304 9.34565 4.875 9.72718 4.875 10.125V12.75M9 8.625V5.25" stroke="#3D4561"/>
</svg>