<svg width="14" height="14" viewBox="0 0 14 14" fill="none" xmlns="http://www.w3.org/2000/svg">
<g clip-path="url(#clip0_59_986)">
<path d="M5.02002 3.48486H1.52002C1.2548 3.48486 1.00045 3.59022 0.812913 3.77776C0.625376 3.96529 0.52002 4.21965 0.52002 4.48486V12.4849C0.52002 12.7501 0.625376 13.0044 0.812913 13.192C1.00045 13.3795 1.2548 13.4849 1.52002 13.4849H10.52C10.7852 13.4849 11.0396 13.3795 11.2271 13.192C11.4147 13.0044 11.52 12.7501 11.52 12.4849V8.48486M0.52002 5.98486H7.02002" stroke="#3D4561" stroke-linecap="round" stroke-linejoin="round"/>
<path d="M3.02002 10.9849L4.52002 9.48491L3.02002 7.98492M6.02002 10.9849H7.52002M7.39602 3.94892C7.04602 3.88792 7.04602 3.38392 7.39602 3.32292C8.01768 3.21493 8.5931 2.92422 9.04886 2.48787C9.50463 2.05152 9.82009 1.48929 9.95502 0.872915L9.97502 0.775915C10.052 0.428915 10.545 0.425915 10.625 0.772915L10.65 0.885915C10.79 1.49956 11.1083 2.05813 11.5649 2.49138C12.0214 2.92464 12.5959 3.21324 13.216 3.32092C13.568 3.38192 13.568 3.88892 13.216 3.95092C12.5959 4.05859 12.0214 4.34719 11.5649 4.78045C11.1083 5.2137 10.79 5.77227 10.65 6.38592L10.624 6.49792C10.545 6.84392 10.052 6.84192 9.97602 6.49492L9.95502 6.39992C9.82009 5.78354 9.50463 5.22131 9.04886 4.78496C8.5931 4.34861 8.01768 4.0579 7.39602 3.94992V3.94892Z" stroke="#3D4561" stroke-linecap="round" stroke-linejoin="round"/>
</g>
<defs>
<clipPath id="clip0_59_986">
<rect width="14" height="14" fill="white"/>
</clipPath>
</defs>
</svg>